<svg xmlns="http://www.w3.org/2000/svg" width="12" height="3.5" fill="none" viewBox="0 0 318 104"><path fill="#E8F9FD" d="M12 57H1V35c0-4 1-7 3-9s4-3 8-3h5l6 2c2 2 2 4 2 7v9-4l-1-3-3-1h-5l-3 1-1 2v21ZM25 0h11v86H25V0ZM1 53h11v20l1 3 3 1h5l3-1 1-4v-3 8c0 3 0 6-2 7l-6 2h-5c-4 0-6-1-8-3s-3-5-3-8V53Zm72 13V36l-1-3h-7v-9h8l9 2c2 2 2 5 2 9v31H73Zm0 7V60h11v15c0 3 0 6-2 8s-5 3-9 3h-8v-9h4l3-1 1-3ZM59 36v30H47V35c0-4 1-7 3-9l9-2h7v9h-7v3Zm0 23v17l3 1h4v9h-7c-4 0-7-1-9-3s-3-5-3-8V59h12Zm60-36v11h-4c-6 0-8 3-8 9v3h-1V35l1-6 4-4 6-2h2Zm-12 63H95V24h12v62Zm14-62h12l9 52 9-52h12l-13 68c-1 4-3 7-5 9-3 2-6 3-10 3h-8V94h10l2-4 1-5h-6l-13-61Zm101 0h11l-12 62h-15l-8-47-7 47h-15l-12-62h11l9 52 8-52h13l8 52 9-52Z"/><path fill="#FF1E00" d="M237 86V70h13v16h-13Zm59-29h-12V37l-1-3-3-1h-4l-3 1-1 3v4h-1v-9l2-6c2-2 4-2 6-2h5l9 2c2 2 3 5 3 9v22Zm-24 47h-12V24h12v80Zm12-51h12v22c0 3-1 6-3 8s-5 3-9 3h-5l-6-2-2-7v-8h1v3l1 4 3 1h4l3-1 1-3V53Zm34 33h-12V0h12v86Z"/></svg>