<svg width="84.44" height="30" viewBox="0 0 318 104" fill="none" xmlns="http://www.w3.org/2000/svg">
<path d="M12.384 56.816H0.864V34.8C0.864 31.0453 1.80267 28.2293 3.68 26.352C5.55733 24.3893 8.45867 23.408 12.384 23.408H16.992C19.552 23.408 21.6 24.0907 23.136 25.456C24.672 26.8213 25.44 29.04 25.44 32.112V41.328H24.928V37.232C24.928 35.6107 24.5867 34.4587 23.904 33.776C23.2213 33.0933 22.1547 32.752 20.704 32.752H16.224C14.688 32.752 13.664 33.008 13.152 33.52C12.64 33.9467 12.384 34.928 12.384 36.464V56.816ZM24.928 0.367996H36.448V86H24.928V78.064V77.424V0.367996ZM0.864 52.592H12.384V72.944C12.384 74.3947 12.64 75.376 13.152 75.888C13.664 76.4 14.688 76.656 16.224 76.656H20.704C22.1547 76.656 23.2213 76.3573 23.904 75.76C24.5867 75.0773 24.928 73.8827 24.928 72.176V69.232H25.44V77.296C25.44 80.368 24.672 82.5867 23.136 83.952C21.6 85.3173 19.552 86 16.992 86H12.384C8.45867 86 5.55733 85.0613 3.68 83.184C1.80267 81.2213 0.864 78.4053 0.864 74.736V52.592ZM73.101 65.52V36.464C73.101 34.8427 72.845 33.8187 72.333 33.392C71.9063 32.88 70.8823 32.624 69.261 32.624H65.421V23.536H72.589C76.7703 23.536 79.7997 24.5173 81.677 26.48C83.5543 28.3573 84.493 31.1733 84.493 34.928V65.52H73.101ZM73.101 73.072V60.144H84.493V74.736C84.493 78.4053 83.5543 81.2213 81.677 83.184C79.7997 85.0613 76.7703 86 72.589 86H64.781V76.912H69.261C70.8823 76.912 71.9063 76.656 72.333 76.144C72.845 75.632 73.101 74.608 73.101 73.072ZM58.509 36.464V65.648H47.117V34.928C47.117 31.1733 48.0557 28.3573 49.933 26.48C51.8103 24.5173 54.797 23.536 58.893 23.536H66.189V32.624H62.349C60.813 32.624 59.789 32.88 59.277 33.392C58.765 33.8187 58.509 34.8427 58.509 36.464ZM58.509 59.376V73.072C58.509 74.608 58.765 75.632 59.277 76.144C59.789 76.656 60.813 76.912 62.349 76.912H65.805V86H58.893C54.797 86 51.8103 85.0613 49.933 83.184C48.0557 81.2213 47.117 78.4053 47.117 74.736V59.376H58.509ZM119.324 23.408V33.52H114.716C109.34 33.52 106.652 36.6347 106.652 42.864V45.552H106.14V34.672C106.14 32.88 106.524 31.1307 107.292 29.424C108.145 27.632 109.34 26.1813 110.876 25.072C112.497 23.9627 114.46 23.408 116.764 23.408H119.324ZM106.652 86H95.132V23.536H106.652V35.184V86ZM121.024 23.536H132.8L142.272 75.888L151.104 23.536H162.752L149.568 92.016C148.715 95.7707 147.093 98.6293 144.704 100.592C142.4 102.64 139.115 103.664 134.848 103.664H127.168V94.448H132.416C134.208 94.448 135.659 94.1493 136.768 93.552C137.963 93.04 138.731 91.9307 139.072 90.224L140.352 84.976H134.08L121.024 23.536ZM221.734 23.536H232.614L221.094 86H205.862L198.438 38.768L191.014 86H175.782L164.39 23.536H175.27L183.59 76.144L191.654 23.536H205.35L213.158 76.144L221.734 23.536Z" fill="#E8F9FD"/>
<path d="M237.346 86V70.256H250.274V86H237.346ZM295.591 56.944H284.071V36.592C284.071 35.056 283.815 34.0747 283.303 33.648C282.791 33.136 281.767 32.88 280.231 32.88H275.751C274.3 32.88 273.234 33.2213 272.551 33.904C271.868 34.5867 271.527 35.7387 271.527 37.36V41.456H271.015V32.24C271.015 29.168 271.783 26.9493 273.319 25.584C274.855 24.2187 276.903 23.536 279.463 23.536H284.071C287.996 23.536 290.898 24.5173 292.775 26.48C294.652 28.3573 295.591 31.1733 295.591 34.928V56.944ZM271.527 103.664H260.007V23.536H271.527V30.96V32.24V103.664ZM284.071 52.592H295.591V74.736C295.591 78.4053 294.652 81.2213 292.775 83.184C290.898 85.0613 287.996 86 284.071 86H279.463C276.903 86 274.855 85.3173 273.319 83.952C271.783 82.5867 271.015 80.368 271.015 77.296V69.232H271.527V72.176C271.527 73.8827 271.868 75.0773 272.551 75.76C273.234 76.3573 274.3 76.656 275.751 76.656H280.231C281.767 76.656 282.791 76.4 283.303 75.888C283.815 75.376 284.071 74.3947 284.071 72.944V52.592ZM317.652 86H306.132V0.367996H317.652V86Z" fill="#FF1E00"/>
</svg>
