<svg xmlns="http://www.w3.org/2000/svg" viewBox="0 0 24 24" fill="currentColor" width="24px" height="24px">
  <path d="M12 12c-1.1 0-2 .9-2 2 0 .74.4 1.38 1 1.72V18c0 .55.45 1 1 1s1-.45 1-1v-2.28c.6-.34 1-.98 1-1.72 0-1.1-.9-2-2-2zm-4.5 2c-.83 0-1.5.67-1.5 1.5S6.67 17 7.5 17 9 16.33 9 15.5 8.33 14 7.5 14zm9 0c-.83 0-1.5.67-1.5 1.5S15.67 17 16.5 17 18 16.33 18 15.5 17.33 14 16.5 14zM7.5 10c-.83 0-1.5.67-1.5 1.5S6.67 13 7.5 13 9 12.33 9 11.5 8.33 10 7.5 10zm9 0c-.83 0-1.5.67-1.5 1.5S15.67 13 16.5 13 18 12.33 18 11.5 17.33 10 16.5 10zM12 8c-.83 0-1.5.67-1.5 1.5S11.17 11 12 11s1.5-.67 1.5-1.5S12.83 8 12 8z"/>
</svg>